<?xml version="1.0" encoding="UTF-8"?>
<svg id="Layer_1" data-name="Layer 1" xmlns="http://www.w3.org/2000/svg" viewBox="0 0 857.85 312.18">
  <defs>
    <style>
      .cls-1, .cls-2 {
        stroke-width: 0px;
      }

      .cls-2 {
        fill: #35bbff;
      }
    </style>
  </defs>
  <path class="cls-1" d="M133.76,96.47h-17.48v52.47h-15.54v-52.47h-17.48v-14.8h50.49v14.8Z"/>
  <path class="cls-1" d="M142.48,115.31c0-20,15.83-35.34,35.34-35.34s35.34,15.34,35.34,35.34-15.83,35.34-35.34,35.34-35.34-15.34-35.34-35.34ZM197.63,115.31c0-12.14-8.74-20.2-19.81-20.2s-19.81,8.06-19.81,20.2,8.74,20.2,19.81,20.2,19.81-8.06,19.81-20.2Z"/>
  <path class="cls-1" d="M297.59,148.94h-15.54v-39.11l-17.57,28.54h-1.75l-17.57-28.54v39.11h-15.54v-67.27h15.54l18.45,29.89,18.45-29.89h15.54v67.27Z"/>
  <path class="cls-1" d="M313.04,115.31c0-20,14.86-35.34,35.34-35.34,12.33,0,23.21,6.12,29.13,15.73l-13.4,7.77c-3.01-5.24-8.84-8.35-15.73-8.35-12.04,0-19.81,8.06-19.81,20.2s7.77,20.2,19.81,20.2c6.89,0,12.82-3.11,15.73-8.35l13.4,7.77c-5.83,9.61-16.7,15.73-29.13,15.73-20.49,0-35.34-15.34-35.34-35.34Z"/>
  <path class="cls-1" d="M506.03,96.47h-17.48v52.47h-15.54v-52.47h-17.48v-14.8h50.49v14.8Z"/>
  <polygon class="cls-2" points="411.02 81.67 388.09 148.94 405.67 148.94 428.61 81.67 411.02 81.67"/>
  <polygon class="cls-1" points="423.76 115.31 435.23 148.94 452.82 148.94 441.35 115.31 423.76 115.31"/>
  <path class="cls-1" d="M168.69,221.59c0-5,4.13-9.13,9.13-9.13s9.13,4.13,9.13,9.13-4.13,9.13-9.13,9.13-9.13-4.13-9.13-9.13Z"/>
  <path class="cls-1" d="M264.69,196.91c0,19.03-14.13,33.63-32.67,33.63h-26.91v-67.27h26.91c18.55,0,32.67,14.61,32.67,33.63ZM249.89,196.91c0-11.53-7.3-18.84-17.87-18.84h-11.53v37.67h11.53c10.57,0,17.87-7.3,17.87-18.84Z"/>
  <path class="cls-1" d="M322.25,215.75v14.8h-42.28v-67.27h41.8v14.8h-26.43v11.15h24.03v14.61h-24.03v11.92h26.91Z"/>
  <path class="cls-1" d="M409.14,215.27l7.69-4.42c2.4,7.4,8.17,12.2,17.97,12.2s14.22-4.32,14.22-10.38c0-6.92-5.96-9.23-15.86-12.3-10.76-3.46-21.14-6.82-21.14-19.32s9.9-19.03,21.14-19.03,19.03,6.25,22.78,14.7l-7.5,4.32c-2.4-5.77-7.11-10.38-15.28-10.38-7.21,0-12.2,3.84-12.2,9.99s4.71,8.55,14.13,11.53c11.72,3.84,22.78,7.3,22.78,20.28,0,11.82-9.51,19.32-23.26,19.32-12.78,0-21.91-6.44-25.47-16.53Z"/>
  <path class="cls-1" d="M516.66,171.74h-19.89v58.81h-8.84v-58.81h-19.8v-8.46h48.53v8.46Z"/>
  <path class="cls-1" d="M533.21,207.96v-44.69h8.94v44.3c0,9.32,5.57,15.47,16.34,15.47s16.34-6.15,16.34-15.47v-44.3h8.84v44.69c0,14.61-10.48,23.83-25.18,23.83s-25.27-9.23-25.27-23.83Z"/>
  <path class="cls-1" d="M662.1,196.91c0,18.64-13.36,33.63-31.9,33.63h-26.23v-67.27h26.23c18.55,0,31.9,14.99,31.9,33.63ZM653.55,196.91c0-14.22-9.51-25.18-23.35-25.18h-17.3v50.36h17.3c13.84,0,23.35-10.96,23.35-25.18Z"/>
  <path class="cls-1" d="M689.48,163.28v67.27h-8.94v-67.27h8.94Z"/>
  <path class="cls-1" d="M708.91,196.91c0-19.41,15.28-34.88,34.79-34.88s34.88,15.47,34.88,34.88-15.38,34.88-34.88,34.88-34.79-15.57-34.79-34.88ZM769.64,196.91c0-14.8-11.24-26.23-25.95-26.23s-25.95,11.44-25.95,26.23,11.24,26.14,25.95,26.14,25.95-11.44,25.95-26.14Z"/>
  <polygon class="cls-1" points="359.53 230.59 336.59 163.32 354 163.32 376.93 230.59 359.53 230.59"/>
  <polygon class="cls-2" points="371.78 196.95 383.25 163.32 400.66 163.32 389.19 196.95 371.78 196.95"/>
</svg>